<svg width="23" height="26" viewBox="0 0 23 26" fill="none" xmlns="http://www.w3.org/2000/svg">
<path d="M12.1243 24.9456C11.685 25.3644 10.9942 25.3644 10.5549 24.9456L0.355079 15.2216C-0.387745 14.5134 0.113487 13.2613 1.13979 13.2613H4.98605C5.61413 13.2613 6.12328 12.7521 6.12328 12.1241L6.12328 1.13725C6.12328 0.509178 6.63243 2.47955e-05 7.2605 2.47955e-05H15.4187C16.0467 2.47955e-05 16.5559 0.509178 16.5559 1.13725L16.5559 12.1241C16.5559 12.7521 17.065 13.2613 17.6931 13.2613H21.5394C22.5657 13.2613 23.0669 14.5134 22.3241 15.2216L12.1243 24.9456Z" fill="#4B4B4B"/>
</svg>
