<svg width="60" height="43" viewBox="0 0 60 43" fill="none" xmlns="http://www.w3.org/2000/svg">
<path fill-rule="evenodd" clip-rule="evenodd" d="M28.6082 0.0220795C28.5416 0.0472053 28.1878 0.158236 27.8219 0.268669C27.456 0.379223 25.922 1.17009 24.4131 2.02627L21.6695 3.58299L21.006 2.92661C20.156 2.08586 19.4574 1.61421 18.2261 1.0496C16.7779 0.385684 15.7941 0.176782 14.1529 0.185038C9.56384 0.20813 5.82566 3.17787 4.78246 7.62907C4.50981 8.79239 4.5409 10.8351 4.84948 12.0423C4.98859 12.5863 5.08391 13.0458 5.06116 13.0634C5.03854 13.081 4.50291 13.3951 3.87087 13.7613C3.23883 14.1275 2.49357 14.622 2.21462 14.8603C1.4967 15.4732 0.673047 16.7552 0.310153 17.8246C0.0148781 18.6947 0 18.8641 0 21.3544C0 24.306 0.0903623 24.8487 0.806836 26.1972C1.35202 27.2234 2.24474 28.1308 3.40201 28.8351C5.99707 30.4144 27.0221 42.3309 27.6404 42.573C28.278 42.8226 28.5647 42.8571 29.9993 42.8571C31.3992 42.8571 31.7272 42.8196 32.2976 42.594C32.6635 42.4494 38.3791 39.2427 44.9989 35.4681C56.1324 29.1199 57.0995 28.5434 57.8963 27.7786C58.8885 26.8264 59.5534 25.6593 59.8247 24.3933C60.0649 23.2725 60.0562 19.4319 59.8111 18.4036C59.3462 16.4522 58.0088 14.8118 55.9462 13.6631C55.3121 13.3099 54.8649 12.9852 54.8752 12.8854C54.885 12.7911 54.9823 12.391 55.0917 11.9962C55.5716 10.2624 55.445 8.13589 54.7531 6.30877C53.939 4.15909 52.2207 2.25611 50.1808 1.24498C48.5967 0.459865 47.4498 0.187789 45.7247 0.187789C43.0592 0.187789 40.9435 1.03237 38.9906 2.876L38.2443 3.5806L35.6703 2.11158C32.2199 0.142443 31.9977 0.0574938 30.1807 0.0123871C29.3823 -0.00735453 28.6747 -0.00304619 28.6082 0.0220795ZM31.6994 2.74595C32.0617 2.9113 33.8794 3.91573 35.7389 4.97795L39.1199 6.90928L39.4888 6.22227C40.0766 5.12787 41.3847 3.91477 42.5918 3.34466C43.7907 2.77837 44.5525 2.60393 45.8262 2.60393C48.1864 2.60393 50.4596 3.85028 51.7857 5.87147C53.2191 8.05597 53.2631 11.1074 51.8928 13.2903C51.6938 13.6072 51.5329 13.9033 51.5353 13.9483C51.5378 13.9933 52.4969 14.5686 53.6667 15.2266C57.0736 17.1431 57.5774 17.9445 57.5774 21.4482C57.5774 23.0361 57.4181 24.0911 57.0655 24.8386C56.4862 26.0666 56.3561 26.1496 43.7664 33.3252C37.27 37.0277 31.7555 40.1395 31.5123 40.24C30.7848 40.5407 29.6607 40.5906 28.8524 40.3581C27.8493 40.0697 4.41812 26.6863 3.72826 26.0078C3.45342 25.7374 3.06005 25.1662 2.85416 24.7385C2.48304 23.9676 2.47941 23.9411 2.4401 21.7202C2.39474 19.1508 2.51232 18.5129 3.2231 17.4764C3.70854 16.7685 4.04506 16.4944 5.32245 15.7668C5.82143 15.4825 6.72866 14.9615 7.33869 14.609L8.44757 13.9679L7.97605 13.1615C7.06362 11.6009 6.80064 9.69668 7.25486 7.93967C7.59356 6.62991 8.14879 5.6707 9.1378 4.68637C10.0874 3.7414 11.2296 3.10548 12.5796 2.77024C13.6351 2.50809 15.4922 2.59735 16.5387 2.96059C18.0689 3.49182 19.5311 4.70121 20.3811 6.13876C20.631 6.56147 20.8697 6.88739 20.9114 6.8631C23.5493 5.33031 28.1158 2.77514 28.4267 2.65801C29.1075 2.40172 29.2875 2.3766 30.1874 2.4119C30.7882 2.43547 31.2356 2.53429 31.6994 2.74595ZM13.4625 4.88475C11.9366 5.08994 10.4949 6.1512 9.77359 7.60048C9.39872 8.35365 9.37477 8.4776 9.37477 9.66677C9.37477 10.8887 9.39025 10.9628 9.83105 11.845C11.7816 15.7488 17.5727 15.2867 18.8727 11.1236C19.4423 9.29922 18.9512 7.4508 17.5531 6.1573C16.4355 5.12332 15.003 4.67764 13.4625 4.88475ZM44.9384 4.8985C42.3384 5.24297 40.4227 7.83211 40.8555 10.4162C41.2037 12.4944 42.7931 14.0756 44.924 14.464C47.0151 14.8451 49.1745 13.7145 50.1647 11.72C50.4753 11.0943 50.5028 10.9272 50.5028 9.66306C50.5028 8.40749 50.474 8.22958 50.1742 7.62907C49.7328 6.74489 49.2438 6.18363 48.4748 5.67884C47.4003 4.97328 46.2648 4.72286 44.9384 4.8985ZM15.1897 7.49663C16.7977 8.21893 17.1015 10.2874 15.7699 11.4466C14.5461 12.5122 12.7786 12.1689 12.0509 10.7244C11.8763 10.3781 11.7339 9.95715 11.7343 9.78917C11.7382 8.02402 13.6056 6.78497 15.1897 7.49663ZM47.0754 7.69655C47.7689 8.18112 48.0835 8.81967 48.0835 9.74251C48.0835 10.3681 48.0282 10.5586 47.719 10.9988C46.3536 12.9421 43.3054 12.0203 43.3054 9.66426C43.3054 8.92484 43.6334 8.23735 44.1849 7.82134C44.7856 7.36812 45.1133 7.26882 45.8765 7.3089C46.4142 7.33702 46.6871 7.42531 47.0754 7.69655ZM16.6029 23.0562C10.5322 23.8274 5.53498 24.4883 5.49797 24.5249C5.40724 24.6147 4.77436 24.2463 17.7818 31.6764L29.334 38.2753L30.0597 38.229C30.7692 38.1838 31.0512 38.031 42.5796 31.4458C49.0663 27.7404 54.3963 24.6885 54.4241 24.6638C54.4518 24.6391 54.4364 24.5812 54.3899 24.5352C54.3434 24.4893 49.2855 23.8179 43.1503 23.0436C28.6002 21.207 31.1668 21.2058 16.6029 23.0562Z" fill="white"/>
<path d="M5.45455 21.5584H54.5455V38.4416H5.45455V21.5584Z" fill="#BA2121"/>
<path d="M12.9841 34.5072C12.5094 34.8935 11.5684 35.0867 10.161 35.0867C9.05717 35.0867 8.1879 34.7859 7.55319 34.1843C6.91848 33.5772 6.60113 32.821 6.60113 31.9159C6.60113 31.3585 6.79706 30.8728 7.18893 30.4588C7.58079 30.0449 8.03336 29.7331 8.54665 29.5233C8.51353 29.4516 8.44454 29.3329 8.33968 29.1673C8.24033 29.0018 8.14651 28.8472 8.0582 28.7037C7.96989 28.5602 7.88986 28.3753 7.81811 28.149C7.74636 27.9228 7.71049 27.6965 7.71049 27.4702C7.71049 26.6257 7.96989 25.9883 8.4887 25.5578C9.01302 25.1273 9.88781 24.912 11.1131 24.912C11.654 24.912 12.1286 24.9838 12.537 25.1273C12.9454 25.2708 13.26 25.464 13.4808 25.7068C13.7016 25.9441 13.8644 26.198 13.9693 26.4684C14.0741 26.7334 14.1266 27.0148 14.1266 27.3129C14.1266 27.931 13.9582 28.483 13.6216 28.9686C13.2904 29.4488 12.7744 29.9069 12.0734 30.3429C12.1562 30.4919 12.3052 30.7017 12.5205 30.9721C12.7412 31.237 12.9427 31.444 13.1248 31.593C13.1745 31.4661 13.2131 31.3391 13.2407 31.2122C13.2738 31.0797 13.2987 30.9307 13.3152 30.7651C13.3373 30.5996 13.329 30.4588 13.2904 30.3429L15.5008 30.4092C15.5008 30.8397 15.4539 31.226 15.3601 31.5682C15.2663 31.9049 15.1724 32.1505 15.0786 32.305C14.9848 32.454 14.8523 32.6417 14.6812 32.868C15.0731 33.1936 15.4622 33.3978 15.8485 33.4806L15.2111 34.9294C15.0621 34.9459 14.9434 34.9542 14.8551 34.9542C14.0438 34.9542 13.4201 34.8052 12.9841 34.5072ZM9.05993 31.9656C9.05993 32.4678 9.21723 32.879 9.53183 33.1991C9.84642 33.5192 10.2134 33.6793 10.6329 33.6793C10.6991 33.6793 10.7598 33.6765 10.815 33.671C10.8702 33.66 10.9282 33.6434 10.9889 33.6213C11.0496 33.5937 11.102 33.5717 11.1462 33.5551C11.1903 33.533 11.2566 33.4999 11.3449 33.4558C11.4332 33.4116 11.5049 33.3757 11.5601 33.3481C10.666 32.7245 9.94852 31.949 9.40764 31.0218C9.27518 31.0991 9.18412 31.2039 9.13444 31.3364C9.08477 31.4688 9.05993 31.6786 9.05993 31.9656ZM11.0717 26.0711C10.6688 26.0711 10.4673 26.5236 10.4673 27.4288C10.4673 27.9917 10.6715 28.5078 11.08 28.9769C11.2952 28.8003 11.4553 28.6127 11.5601 28.414C11.665 28.2153 11.7257 28.0442 11.7423 27.9007C11.7643 27.7517 11.7754 27.5447 11.7754 27.2798C11.7754 26.474 11.5408 26.0711 11.0717 26.0711Z" fill="white"/>
<path d="M20.2925 36.3533H18.2145V34.8797C17.7233 34.7859 17.3094 34.6479 16.9727 34.4658C16.6416 34.2781 16.3877 34.0877 16.2111 33.8945L16.418 31.8828C16.6443 32.1863 16.9479 32.4513 17.3287 32.6775C17.7095 32.8983 18.1207 33.0087 18.5622 33.0087C19.0038 33.0087 19.3211 32.9618 19.5143 32.868C19.713 32.7741 19.8123 32.603 19.8123 32.3547C19.8123 32.0897 19.6992 31.8635 19.4729 31.6758C19.2521 31.4882 18.8686 31.2619 18.3222 30.9969C18.1842 30.9252 18.0683 30.8645 17.9745 30.8148C17.8806 30.7651 17.7509 30.6851 17.5853 30.5747C17.4253 30.4643 17.2873 30.3567 17.1714 30.2519C17.0555 30.147 16.9286 30.0118 16.7906 29.8462C16.6581 29.6806 16.5477 29.5095 16.4594 29.3329C16.3766 29.1563 16.3049 28.9493 16.2442 28.712C16.189 28.4692 16.1614 28.2153 16.1614 27.9504C16.1614 27.426 16.2414 26.9707 16.4015 26.5844C16.5671 26.198 16.7989 25.8889 17.0969 25.6571C17.4005 25.4198 17.773 25.2459 18.2145 25.1356V23.7116H20.2925V25.0611C20.5354 25.1052 20.7616 25.1687 20.9714 25.2515C21.1866 25.3343 21.355 25.417 21.4764 25.4998C21.6033 25.5771 21.7165 25.6626 21.8158 25.7565C21.9207 25.8448 21.9869 25.9055 22.0145 25.9386C22.0421 25.9717 22.0614 25.9993 22.0725 26.0214L21.6585 27.6192C21.4433 27.3653 21.1728 27.1777 20.8472 27.0562C20.5271 26.9293 20.2208 26.8658 19.9282 26.8658C19.2218 26.8658 18.8686 27.0866 18.8686 27.5281C18.8686 27.644 18.8906 27.7489 18.9348 27.8427C18.9789 27.9366 19.0507 28.0221 19.15 28.0994C19.2494 28.1766 19.3405 28.2429 19.4232 28.2981C19.5115 28.3533 19.6302 28.4222 19.7792 28.505C19.9338 28.5823 20.0497 28.6458 20.1269 28.6954C20.9327 29.0376 21.5233 29.4433 21.8986 29.9124C22.2794 30.3816 22.4698 30.9528 22.4698 31.6261C22.4698 32.5313 22.2849 33.2598 21.9152 33.8117C21.5454 34.3581 21.0045 34.7141 20.2925 34.8797V36.3533Z" fill="white"/>
<path d="M25.0277 34.9625L23.6699 33.5965V33.3067L25.0277 31.949H25.3423L26.7579 33.3067V33.5965L25.3423 34.9625H25.0277ZM24.5641 31.1956C24.553 30.4726 24.4785 29.8131 24.3405 29.217C24.2081 28.6209 23.979 27.8814 23.6534 26.9983C23.5761 26.7554 23.5375 26.496 23.5375 26.2201C23.5375 25.6902 23.6782 25.2929 23.9597 25.0279C24.2467 24.7575 24.6606 24.6223 25.2015 24.6223C25.77 24.6223 26.1867 24.7685 26.4516 25.0611C26.7165 25.348 26.849 25.7454 26.849 26.2532C26.849 26.5236 26.8131 26.772 26.7414 26.9983C26.4157 27.8814 26.1839 28.6209 26.046 29.217C25.9135 29.8131 25.8417 30.4726 25.8307 31.1956H24.5641Z" fill="white"/>
<path d="M30.6827 34.8052H29.027L29.7472 31.9573H28.0418L28.464 30.285H30.1694L30.5751 28.6789H28.8697L29.2919 27.0066H30.9973L31.7176 24.1338H33.3816L32.6614 27.0066H34.4827L35.2112 24.1338H36.867L36.1467 27.0066H37.9432L37.521 28.6789H35.7245L35.3106 30.285H37.1071L36.6849 31.9573H34.8884L34.1681 34.8052H32.5123L33.2326 31.9573H31.403L30.6827 34.8052ZM32.2391 28.6789L31.8252 30.285H33.6548L34.0605 28.6789H32.2391Z" fill="white"/>
<path d="M50.191 34.1429C50.5829 34.1429 50.7788 33.8255 50.7788 33.1908V30.9721C50.7788 30.5085 50.7346 30.1663 50.6463 29.9455C50.558 29.7248 50.4062 29.6144 50.191 29.6144C49.7991 29.6144 49.6032 29.9235 49.6032 30.5416V32.8266C49.6032 33.2791 49.6501 33.613 49.7439 33.8283C49.8378 34.038 49.9868 34.1429 50.191 34.1429ZM50.1413 34.9873C49.054 34.9873 48.2869 34.75 47.8398 34.2754C47.3928 33.7952 47.1692 33.0142 47.1692 31.9325C47.1692 31.4026 47.2162 30.95 47.31 30.5747C47.4093 30.1994 47.5721 29.871 47.7984 29.5896C48.0302 29.3026 48.3448 29.0901 48.7422 28.9521C49.1451 28.8141 49.6418 28.7451 50.2324 28.7451C50.8064 28.7451 51.2866 28.8113 51.6729 28.9438C52.0648 29.0707 52.3738 29.2694 52.6001 29.5399C52.8264 29.8048 52.9865 30.1222 53.0803 30.4919C53.1796 30.8617 53.2293 31.3088 53.2293 31.8331C53.2293 32.9314 52.9948 33.7317 52.5256 34.234C52.062 34.7362 51.2672 34.9873 50.1413 34.9873ZM41.6638 30.5251C42.0557 30.5251 42.2516 30.2077 42.2516 29.573V27.3543C42.2516 26.8907 42.2075 26.5485 42.1192 26.3277C42.0309 26.1069 41.8791 25.9966 41.6638 25.9966C41.272 25.9966 41.076 26.3056 41.076 26.9238V29.2087C41.076 29.6613 41.123 29.9952 41.2168 30.2105C41.3106 30.4202 41.4596 30.5251 41.6638 30.5251ZM41.6142 31.3695C40.5269 31.3695 39.7597 31.1322 39.3127 30.6575C38.8656 30.1773 38.6421 29.3964 38.6421 28.3146C38.6421 27.7848 38.689 27.3322 38.7828 26.9569C38.8822 26.5816 39.045 26.2532 39.2713 25.9717C39.5031 25.6847 39.8177 25.4722 40.215 25.3343C40.618 25.1963 41.1147 25.1273 41.7052 25.1273C42.2792 25.1273 42.7594 25.1935 43.1457 25.326C43.5376 25.4529 43.8467 25.6516 44.073 25.922C44.2993 26.187 44.4593 26.5043 44.5531 26.8741C44.6525 27.2439 44.7022 27.6909 44.7022 28.2153C44.7022 29.3136 44.4676 30.1139 43.9985 30.6161C43.5348 31.1184 42.7401 31.3695 41.6142 31.3695ZM41.6142 34.8052L48.3034 25.119H50.3235L43.6425 34.8052H41.6142Z" fill="white"/>
</svg>
