<svg width="164" height="144" viewBox="0 0 164 144" fill="none" xmlns="http://www.w3.org/2000/svg">
<path fill-rule="evenodd" clip-rule="evenodd" d="M78.6731 0.0540294C78.5103 0.115513 77.6445 0.387208 76.7491 0.657443C75.8537 0.92797 72.1 2.86324 68.4077 4.95836L61.694 8.7677L60.0704 7.16152C57.9904 5.10417 56.2809 3.95003 53.2679 2.56841C49.7241 0.943783 47.3167 0.432592 43.3005 0.452794C32.071 0.5093 22.9236 7.77636 20.3708 18.6686C19.7036 21.5153 19.7797 26.5139 20.5348 29.468C20.8752 30.799 21.1085 31.9236 21.0528 31.9666C20.9975 32.0096 19.6867 32.7782 18.1401 33.6744C16.5935 34.5706 14.7698 35.7806 14.0872 36.3636C12.3304 37.8635 10.3149 41.0006 9.42692 43.6174C8.70438 45.7465 8.66797 46.1611 8.66797 52.255C8.66797 59.4776 8.88909 60.8056 10.6423 64.1055C11.9764 66.6167 14.1609 68.8371 16.9928 70.5604C23.343 74.4251 74.7919 103.585 76.3051 104.178C77.8653 104.788 78.5668 104.873 82.0772 104.873C85.5028 104.873 86.3056 104.781 87.7013 104.229C88.5967 103.875 102.583 96.0283 118.782 86.7917C146.026 71.2575 148.392 69.8466 150.342 67.9752C152.77 65.6452 154.397 62.7892 155.061 59.6913C155.649 56.9485 155.628 47.5506 155.028 45.0342C153.89 40.259 150.617 36.245 145.57 33.434C144.019 32.5697 142.924 31.7751 142.949 31.531C142.973 31.3002 143.212 30.3212 143.479 29.355C144.653 25.1124 144.344 19.9088 142.651 15.4378C140.659 10.1774 136.454 5.52079 131.462 3.04652C127.586 1.1253 124.779 0.459526 120.558 0.459526C114.035 0.459526 108.858 2.52625 104.079 7.03768L102.253 8.76185L95.9545 5.16711C87.5112 0.348562 86.9675 0.140689 82.5212 0.0303117C80.5675 -0.0179968 78.8359 -0.00745413 78.6731 0.0540294ZM86.2375 6.71943C87.124 7.12405 91.5721 9.58192 96.1223 12.1812L104.396 16.9072L105.298 15.2261C106.737 12.5481 109.938 9.57958 112.892 8.18449C115.825 6.79877 117.69 6.3719 120.806 6.3719C126.582 6.3719 132.144 9.42177 135.389 14.3677C138.897 19.7132 139.005 27.1803 135.651 32.5217C135.164 33.2973 134.771 34.0219 134.777 34.132C134.783 34.2421 137.13 35.6498 139.992 37.26C148.329 41.9498 149.562 43.9108 149.562 52.4845C149.562 56.37 149.172 58.9517 148.309 60.781C146.892 63.7858 146.573 63.989 115.766 81.5478C99.8688 90.6081 86.3749 98.2227 85.7796 98.4686C83.9994 99.2044 81.2486 99.3265 79.2707 98.7576C76.8163 98.052 19.4793 65.3024 17.7911 63.642C17.1186 62.9804 16.156 61.5826 15.6522 60.5359C14.7441 58.6496 14.7352 58.5846 14.639 53.15C14.528 46.8626 14.8157 45.3018 16.555 42.7654C17.7429 41.0331 18.5664 40.3623 21.6922 38.5819C22.9132 37.8863 25.1332 36.6113 26.626 35.7487L29.3395 34.18L28.1856 32.2067C25.9529 28.3877 25.3094 23.7281 26.4209 19.4287C27.2497 16.2236 28.6083 13.8764 31.0285 11.4677C33.3521 9.15534 36.1473 7.59923 39.4507 6.77886C42.0336 6.13738 46.5779 6.3558 49.1386 7.24467C52.8831 8.54461 56.4612 11.504 58.5412 15.0218C59.1528 16.0561 59.7368 16.8537 59.8389 16.7942C66.2939 13.0434 77.4684 6.79086 78.2291 6.50423C79.895 5.8771 80.3355 5.81562 82.5375 5.90199C84.0077 5.95967 85.1026 6.2015 86.2375 6.71943ZM41.6112 11.9531C37.8771 12.4553 34.3493 15.0522 32.5843 18.5986C31.667 20.4417 31.6083 20.745 31.6083 23.6549C31.6083 26.6451 31.6462 26.8263 32.7249 28.9852C37.498 38.5377 51.6689 37.407 54.8501 27.2198C56.2439 22.7555 55.0422 18.2324 51.6209 15.0671C48.8862 12.5369 45.3809 11.4463 41.6112 11.9531ZM118.634 11.9868C112.271 12.8297 107.584 19.1654 108.643 25.4889C109.495 30.5742 113.384 34.4435 118.599 35.3939C123.716 36.3264 129 33.5599 131.423 28.6793C132.183 27.1481 132.25 26.7393 132.25 23.6458C132.25 20.5734 132.18 20.1381 131.446 18.6686C130.366 16.505 129.169 15.1315 127.287 13.8963C124.658 12.1698 121.879 11.557 118.634 11.9868ZM45.8376 18.3445C49.7724 20.112 50.516 25.1736 47.2575 28.0103C44.2629 30.6178 39.9376 29.7778 38.1569 26.2431C37.7297 25.3955 37.3813 24.3655 37.3822 23.9544C37.3917 19.6351 41.9614 16.603 45.8376 18.3445ZM123.863 18.8337C125.56 20.0195 126.33 21.582 126.33 23.8402C126.33 25.3712 126.195 25.8373 125.438 26.9144C122.097 31.6697 114.638 29.4142 114.638 23.6488C114.638 21.8394 115.44 20.1571 116.79 19.1391C118.26 18.03 119.062 17.787 120.929 17.8851C122.245 17.9539 122.913 18.17 123.863 18.8337ZM49.2958 56.4192C34.4405 58.3064 22.2123 59.9237 22.1217 60.0133C21.8997 60.2329 20.351 59.3315 52.1807 77.5133L80.4491 93.6609L82.2252 93.5476C83.9612 93.4369 84.6512 93.0631 112.862 76.9488C128.735 67.8818 141.777 60.4136 141.846 60.3533C141.913 60.2926 141.876 60.1509 141.762 60.0385C141.648 59.9261 129.271 58.2833 114.258 56.3884C78.6536 51.8943 84.9342 51.8914 49.2958 56.4192Z" fill="white"/>
<path d="M22.0154 52.7542H142.143V94.0678H22.0154V52.7542Z" fill="#BA2121"/>
<path d="M40.4405 84.4402C39.279 85.3856 36.9763 85.8583 33.5323 85.8583C30.8312 85.8583 28.704 85.1222 27.1509 83.6501C25.5977 82.1645 24.8212 80.3142 24.8212 78.0993C24.8212 76.7352 25.3006 75.5467 26.2595 74.5338C27.2184 73.5209 28.3259 72.7578 29.5819 72.2446C29.5009 72.069 29.3321 71.7786 29.0754 71.3735C28.8323 70.9683 28.6027 70.5901 28.3867 70.239C28.1706 69.8878 27.9747 69.4354 27.7992 68.8817C27.6236 68.3279 27.5358 67.7742 27.5358 67.2205C27.5358 65.1541 28.1706 63.5942 29.4401 62.5408C30.7231 61.4873 32.8638 60.9606 35.862 60.9606C37.1856 60.9606 38.3471 61.1362 39.3465 61.4873C40.3459 61.8385 41.1157 62.3112 41.656 62.9054C42.1962 63.4861 42.5946 64.1074 42.8512 64.7692C43.1078 65.4175 43.2361 66.1062 43.2361 66.8356C43.2361 68.3482 42.8242 69.6988 42.0004 70.8873C41.19 72.0622 39.9272 73.1832 38.212 74.2502C38.4146 74.6148 38.7793 75.128 39.306 75.7898C39.8462 76.4381 40.3392 76.9445 40.7849 77.3092C40.9064 76.9986 41.0009 76.6879 41.0685 76.3773C41.1495 76.0532 41.2103 75.6885 41.2508 75.2833C41.3048 74.8782 41.2846 74.5338 41.19 74.2502L46.599 74.4122C46.599 75.4657 46.4842 76.4111 46.2547 77.2484C46.0251 78.0723 45.7955 78.6733 45.5659 79.0514C45.3363 79.4161 45.0121 79.8753 44.5935 80.429C45.5524 81.2258 46.5045 81.7256 47.4499 81.9281L45.89 85.4734C45.5253 85.5139 45.235 85.5341 45.0189 85.5341C43.0336 85.5341 41.5074 85.1695 40.4405 84.4402ZM30.8379 78.2208C30.8379 79.4498 31.2228 80.456 31.9927 81.2393C32.7625 82.0227 33.6606 82.4143 34.687 82.4143C34.8491 82.4143 34.9977 82.4076 35.1327 82.3941C35.2678 82.3671 35.4096 82.3266 35.5582 82.2725C35.7067 82.205 35.835 82.151 35.9431 82.1105C36.0511 82.0564 36.2132 81.9754 36.4293 81.8674C36.6454 81.7593 36.8209 81.6715 36.956 81.604C34.7681 80.0779 33.0123 78.1803 31.6888 75.9114C31.3647 76.1004 31.1418 76.357 31.0203 76.6812C30.8987 77.0053 30.8379 77.5185 30.8379 78.2208ZM35.7607 63.7968C34.7748 63.7968 34.2819 64.9042 34.2819 67.1192C34.2819 68.4967 34.7816 69.7595 35.781 70.9075C36.3077 70.4753 36.6994 70.0161 36.956 69.5299C37.2126 69.0437 37.3612 68.6251 37.4017 68.2739C37.4557 67.9093 37.4827 67.4028 37.4827 66.7545C37.4827 64.7827 36.9087 63.7968 35.7607 63.7968Z" fill="white"/>
<path d="M58.3244 88.9578H53.2396V85.3518C52.0376 85.1222 51.0246 84.7846 50.2008 84.3389C49.3904 83.8797 48.7692 83.4138 48.337 82.9411L48.8435 78.0182C49.3972 78.7611 50.14 79.4093 51.0719 79.9631C52.0038 80.5033 53.01 80.7734 54.0904 80.7734C55.1709 80.7734 55.9474 80.6586 56.4201 80.429C56.9063 80.1994 57.1494 79.7807 57.1494 79.173C57.1494 78.5247 56.8726 77.971 56.3189 77.5118C55.7786 77.0526 54.84 76.4989 53.5029 75.8506C53.1653 75.675 52.8817 75.5265 52.6521 75.4049C52.4225 75.2833 52.1051 75.0875 51.6999 74.8174C51.3083 74.5473 50.9706 74.2839 50.687 74.0273C50.4034 73.7707 50.0927 73.4398 49.7551 73.0347C49.431 72.6295 49.1608 72.2108 48.9448 71.7786C48.7422 71.3464 48.5666 70.84 48.418 70.2592C48.283 69.665 48.2155 69.0437 48.2155 68.3955C48.2155 67.1124 48.4113 65.9982 48.8029 65.0528C49.2081 64.1074 49.7754 63.3511 50.5047 62.7839C51.2475 62.2031 52.1591 61.7777 53.2396 61.5076V58.0231H58.3244V61.3252C58.9187 61.4333 59.4724 61.5886 59.9856 61.7912C60.5124 61.9938 60.9243 62.1964 61.2214 62.3989C61.532 62.588 61.8089 62.7974 62.052 63.027C62.3086 63.243 62.4707 63.3916 62.5382 63.4726C62.6057 63.5537 62.653 63.6212 62.68 63.6752L61.6671 67.5851C61.1404 66.9639 60.4786 66.5047 59.6818 66.2075C58.8984 65.8969 58.1489 65.7416 57.4331 65.7416C55.7043 65.7416 54.84 66.2818 54.84 67.3623C54.84 67.6459 54.894 67.9025 55.002 68.1321C55.1101 68.3617 55.2857 68.571 55.5288 68.7601C55.7719 68.9492 55.9947 69.1113 56.1973 69.2463C56.4134 69.3814 56.7038 69.5502 57.0684 69.7528C57.4466 69.9419 57.7302 70.0972 57.9193 70.2187C59.8911 71.0561 61.3362 72.0487 62.2546 73.1967C63.1865 74.3447 63.6524 75.7425 63.6524 77.3902C63.6524 79.6052 63.2 81.3879 62.2951 82.7385C61.3902 84.0755 60.0667 84.9467 58.3244 85.3518V88.9578Z" fill="white"/>
<path d="M69.9115 85.5544L66.5891 82.2117V81.5027L69.9115 78.1803H70.6813L74.1455 81.5027V82.2117L70.6813 85.5544H69.9115ZM68.777 76.3368C68.75 74.5675 68.5677 72.9536 68.2301 71.495C67.9059 70.0364 67.3454 68.2266 66.5486 66.0657C66.3595 65.4715 66.265 64.8367 66.265 64.1614C66.265 62.8649 66.6094 61.8925 67.2982 61.2442C68.0005 60.5824 69.0134 60.2515 70.3369 60.2515C71.728 60.2515 72.7477 60.6094 73.396 61.3252C74.0442 62.0275 74.3684 62.9999 74.3684 64.2425C74.3684 64.9042 74.2806 65.512 74.105 66.0657C73.3082 68.2266 72.7409 70.0364 72.4033 71.495C72.0792 72.9536 71.9036 74.5675 71.8766 76.3368H68.777Z" fill="white"/>
<path d="M83.7496 85.1695H79.6979L81.4604 78.2006H77.2872L78.3204 74.1084H82.4936L83.4863 70.1782H79.313L80.3462 66.086H84.5195L86.282 59.0563H90.3539L88.5914 66.086H93.0483L94.831 59.0563H98.8827L97.1202 66.086H101.516L100.483 70.1782H96.0871L95.0741 74.1084H99.4702L98.4371 78.2006H94.041L92.2785 85.1695H88.2268L89.9893 78.2006H85.5121L83.7496 85.1695ZM87.5582 70.1782L86.5453 74.1084H91.0224L92.0151 70.1782H87.5582Z" fill="white"/>
<path d="M131.487 83.5488C132.446 83.5488 132.925 82.7722 132.925 81.2191V75.7898C132.925 74.6553 132.817 73.818 132.601 73.2778C132.385 72.7375 132.014 72.4674 131.487 72.4674C130.528 72.4674 130.049 73.2237 130.049 74.7364V80.3277C130.049 81.4352 130.163 82.2523 130.393 82.779C130.623 83.2922 130.987 83.5488 131.487 83.5488ZM131.366 85.6152C128.705 85.6152 126.828 85.0344 125.734 83.8729C124.64 82.698 124.093 80.7869 124.093 78.1398C124.093 76.8433 124.207 75.7358 124.437 74.8174C124.68 73.899 125.079 73.0954 125.632 72.4066C126.2 71.7043 126.969 71.1844 127.942 70.8467C128.928 70.5091 130.143 70.3403 131.588 70.3403C132.993 70.3403 134.168 70.5023 135.113 70.8265C136.072 71.1371 136.829 71.6233 137.382 72.2851C137.936 72.9334 138.328 73.7099 138.557 74.6148C138.8 75.5197 138.922 76.6137 138.922 77.8967C138.922 80.5843 138.348 82.5426 137.2 83.7717C136.065 85.0007 134.121 85.6152 131.366 85.6152ZM110.621 74.6959C111.58 74.6959 112.059 73.9193 112.059 72.3661V66.9369C112.059 65.8024 111.951 64.965 111.735 64.4248C111.519 63.8846 111.148 63.6145 110.621 63.6145C109.662 63.6145 109.182 64.3708 109.182 65.8834V71.4748C109.182 72.5822 109.297 73.3993 109.527 73.926C109.756 74.4392 110.121 74.6959 110.621 74.6959ZM110.499 76.7622C107.839 76.7622 105.961 76.1815 104.867 75.02C103.773 73.845 103.226 71.9339 103.226 69.2868C103.226 67.9903 103.341 66.8828 103.571 65.9644C103.814 65.0461 104.212 64.2425 104.766 63.5537C105.333 62.8514 106.103 62.3314 107.076 61.9938C108.061 61.6561 109.277 61.4873 110.722 61.4873C112.127 61.4873 113.302 61.6494 114.247 61.9735C115.206 62.2841 115.962 62.7703 116.516 63.4321C117.07 64.0804 117.461 64.857 117.691 65.7619C117.934 66.6667 118.056 67.7607 118.056 69.0437C118.056 71.7314 117.482 73.6897 116.334 74.9187C115.199 76.1477 113.254 76.7622 110.499 76.7622ZM110.499 85.1695L126.868 61.4671H131.811L115.463 85.1695H110.499Z" fill="white"/>
<path d="M4.50124 127.212V132.5H-0.000451364V116.608H1.78938C2.22328 116.608 2.86961 116.59 3.72836 116.554C4.58712 116.509 5.29672 116.486 5.85718 116.486C7.80972 116.486 9.26509 116.916 10.2233 117.775C11.1905 118.633 11.6741 119.949 11.6741 121.72C11.6741 122.769 11.4436 123.7 10.9826 124.514C10.5306 125.327 9.92949 125.973 9.17921 126.453C9.58599 126.552 9.93401 126.782 10.2233 127.144C10.5216 127.506 10.7521 127.935 10.9148 128.432C11.0775 128.92 11.2176 129.418 11.3351 129.924C11.4617 130.421 11.6018 130.914 11.7555 131.402C11.9182 131.89 12.0945 132.256 12.2843 132.5H7.2809C7.18147 132.373 7.10463 132.021 7.0504 131.442C6.99616 130.855 6.91932 130.154 6.81989 129.341C6.72949 128.518 6.59842 127.831 6.42667 127.28C6.40859 127.28 6.38599 127.28 6.35887 127.28C6.18712 127.28 6.00181 127.28 5.80294 127.28C5.61311 127.271 5.44588 127.262 5.30124 127.253C5.15661 127.244 5.00294 127.234 4.84023 127.225C4.68655 127.216 4.57356 127.212 4.50124 127.212ZM4.50124 124.69H4.93514C5.16113 124.69 5.35096 124.681 5.50463 124.663C5.65831 124.645 5.82554 124.613 6.00633 124.568C6.19616 124.514 6.34983 124.432 6.46735 124.324C6.5939 124.215 6.71141 124.075 6.81989 123.903C6.92836 123.732 7.00972 123.51 7.06396 123.239C7.11819 122.968 7.14531 122.651 7.14531 122.29V121.219C7.14531 120.432 6.9374 119.885 6.52158 119.578C6.1148 119.262 5.52723 119.103 4.75887 119.103H4.50124V124.69ZM22.1663 132.5L21.5561 129.964H17.7053L17.19 132.5H13.2036L17.3392 117.707L17.0137 116.608H22.6137L27.1426 132.5H22.1663ZM19.4544 121.273L18.2612 127.198H20.8917L19.4544 121.273ZM31.4198 132.5V120.202H28.2469V116.608H39.1757V120.202H36.0028V132.5H31.4198ZM51.2121 132.5H41.5985V116.608H51.0087L50.7375 119.808L46.0866 119.673V122.737H49.7476V125.91L46.0866 125.639V129.246L51.2121 129.11V132.5ZM63.7703 132.5H59.689L60.95 116.608H67.3093L68.5025 121.937L69.0449 124.636L69.5601 121.951L70.6178 116.608H76.2856L77.4517 132.5H73.2347L72.5432 123.158L72.3805 119.714L70.3059 130.914H66.7669L64.272 119.714L64.1907 123.158L63.7703 132.5ZM82.7749 132.5V127.537L78.2732 116.608H83.4122L84.8088 120.703L85.7444 124.053L86.5172 120.703L87.5749 116.608H91.6155L87.6427 127.456V132.5H82.7749ZM104.432 132.785C103.736 132.785 103.085 132.721 102.479 132.595C101.883 132.477 101.381 132.319 100.974 132.12C100.567 131.921 100.233 131.732 99.9708 131.551C99.7177 131.37 99.5053 131.189 99.3336 131.008L99.6725 127.714C100.043 128.211 100.54 128.645 101.164 129.015C101.788 129.377 102.461 129.558 103.184 129.558C103.908 129.558 104.427 129.481 104.744 129.327C105.069 129.173 105.232 128.893 105.232 128.486C105.232 128.053 105.047 127.682 104.676 127.375C104.314 127.067 103.686 126.697 102.791 126.263C102.466 126.1 102.19 125.955 101.964 125.829C101.738 125.693 101.435 125.476 101.056 125.178C100.685 124.871 100.382 124.554 100.147 124.229C99.9121 123.894 99.7042 123.469 99.5234 122.954C99.3426 122.43 99.2522 121.869 99.2522 121.273C99.2522 118.046 101.074 116.432 104.717 116.432C105.295 116.432 105.838 116.495 106.344 116.622C106.859 116.74 107.261 116.871 107.551 117.015C107.84 117.16 108.102 117.332 108.337 117.531C108.581 117.72 108.735 117.856 108.798 117.937C108.861 118.01 108.906 118.068 108.934 118.114L108.256 120.731C107.903 120.315 107.46 120.007 106.927 119.808C106.402 119.601 105.901 119.497 105.422 119.497C104.265 119.497 103.686 119.858 103.686 120.581C103.686 120.771 103.722 120.943 103.795 121.097C103.867 121.25 103.984 121.39 104.147 121.517C104.31 121.644 104.459 121.752 104.595 121.842C104.739 121.933 104.934 122.046 105.178 122.181C105.431 122.308 105.621 122.412 105.747 122.493C107.067 123.054 108.034 123.718 108.649 124.486C109.273 125.255 109.584 126.19 109.584 127.293C109.584 129.083 109.141 130.448 108.256 131.388C107.379 132.319 106.104 132.785 104.432 132.785ZM112.242 132.5V116.608H116.73V128.866H120.77V132.5H112.242ZM123.275 132.5V116.608H127.898V132.5H123.275ZM135.457 132.5H130.969V116.608H132.759C133.238 116.608 133.961 116.59 134.929 116.554C135.896 116.509 136.691 116.486 137.315 116.486C139.069 116.486 140.398 116.952 141.301 117.883C142.205 118.814 142.657 120.211 142.657 122.073C142.657 123.194 142.508 124.215 142.21 125.137C141.921 126.05 141.527 126.801 141.03 127.388C140.533 127.976 139.968 128.428 139.335 128.744C138.703 129.06 138.034 129.219 137.329 129.219C137.238 129.219 137.143 129.219 137.044 129.219C136.953 129.219 136.868 129.219 136.786 129.219C136.714 129.21 136.624 129.205 136.515 129.205C136.416 129.196 136.334 129.192 136.271 129.192C136.217 129.182 136.135 129.178 136.027 129.178C135.927 129.169 135.86 129.164 135.824 129.164C135.787 129.164 135.72 129.16 135.62 129.151C135.521 129.142 135.466 129.137 135.457 129.137V132.5ZM138.21 121.476C138.21 120.807 138.029 120.265 137.668 119.849C137.306 119.433 136.786 119.225 136.108 119.225H135.457V126.276H135.959C136.673 126.276 137.225 126.037 137.613 125.558C138.011 125.079 138.21 124.387 138.21 123.483V121.476ZM149.39 132.5H144.901V116.608H146.691C147.17 116.608 147.894 116.59 148.861 116.554C149.828 116.509 150.623 116.486 151.247 116.486C153.001 116.486 154.33 116.952 155.234 117.883C156.138 118.814 156.59 120.211 156.59 122.073C156.59 123.194 156.44 124.215 156.142 125.137C155.853 126.05 155.46 126.801 154.962 127.388C154.465 127.976 153.9 128.428 153.268 128.744C152.635 129.06 151.966 129.219 151.261 129.219C151.17 129.219 151.075 129.219 150.976 129.219C150.886 129.219 150.8 129.219 150.718 129.219C150.646 129.21 150.556 129.205 150.447 129.205C150.348 129.196 150.266 129.192 150.203 129.192C150.149 129.182 150.068 129.178 149.959 129.178C149.86 129.169 149.792 129.164 149.756 129.164C149.72 129.164 149.652 129.16 149.552 129.151C149.453 129.142 149.399 129.137 149.39 129.137V132.5ZM152.142 121.476C152.142 120.807 151.961 120.265 151.6 119.849C151.238 119.433 150.718 119.225 150.04 119.225H149.39V126.276H149.891C150.605 126.276 151.157 126.037 151.546 125.558C151.943 125.079 152.142 124.387 152.142 123.483V121.476ZM158.874 132.5V116.608H163.498V132.5H158.874Z" fill="white"/>
</svg>
