<svg width="14" height="13" viewBox="0 0 14 13" fill="none" xmlns="http://www.w3.org/2000/svg">
<path d="M3.40942 12.5335C2.82447 12.8864 2.10283 12.3628 2.25678 11.6972L2.99653 8.49925C3.06107 8.22024 2.9661 7.92841 2.74973 7.74082L0.267772 5.58903C-0.248337 5.14158 0.0268719 4.29366 0.707381 4.23458L3.99048 3.94959C4.27591 3.92482 4.52424 3.74423 4.63578 3.48032L5.90716 0.472152C6.17324 -0.157409 7.06542 -0.157409 7.3315 0.472153L8.60287 3.48032C8.71441 3.74423 8.96274 3.92482 9.24818 3.94959L12.5313 4.23458C13.2118 4.29366 13.487 5.14158 12.9709 5.58903L10.4889 7.74082C10.2725 7.92841 10.1776 8.22024 10.2421 8.49925L10.9819 11.6972C11.1358 12.3628 10.4142 12.8864 9.82924 12.5335L7.01869 10.8381C6.77306 10.6899 6.46559 10.6899 6.21996 10.8381L3.40942 12.5335Z" fill="#F6A51E"/>
</svg>
